# xmcd CD database file
#
# Track frame offsets:
#	150
#	14086
#	28072
#	39780
#	50708
#	62630
#	63140
#	78354
#	97262
#	107766
#	121956
#	137910
#
# Disc length: 1842 seconds
#
# Revision: 0
# Processed by: cddbd v1.5.2PL0 Copyright (c) Steve Scherf et al.
# Submitted via: ACXtractor (MTCDDB.DLL V2003.07.15)
#
DISCID=a407300c
DTITLE=Merle Haggard - Big City
DYEAR=1981
DGENRE=Country
TTITLE0=Big City
TTITLE1=My Favorite Memory
TTITLE2=Good old American Guest
TTITLE3=I Think I'm Gonna Live Forever
TTITLE4=This Song Is Mine
TTITLE5=Stop The World and Let Me Off
TTITLE6=Are The Good Times Realy Over
TTITLE7=Texas Fiddle Song
TTITLE8=You Don't Have Very Far To Go
TTITLE9=I Always Get Lucky With You
TTITLE10=Call Me
TTITLE11=I Won't Give Up My Train
EXTD=ID3G:   2 YEAR: 1981
EXTT0=
EXTT1=
EXTT2=
EXTT3=
EXTT4=
EXTT5=
EXTT6=(I Wish A Buck Was Still Silver)
EXTT7=
EXTT8=
EXTT9=
EXTT10=
EXTT11=
PLAYORDER=
